<svg width="163" height="53" viewBox="0 0 163 53" fill="none" xmlns="http://www.w3.org/2000/svg">
<rect x="3" y="3" width="160" height="50" fill="#FE998D"/>
<rect width="160" height="50" fill="#1D1E3C"/>
<path d="M40.418 18.49V31H38.348V21.622L34.73 31H32.93L29.294 21.622V31H27.242V18.49H29.726L33.866 28.48L37.934 18.49H40.418ZM44.0565 21.082L47.0265 28.372L49.7805 21.082H52.0665L46.0725 35.716H43.7865L45.9285 30.766L41.7525 21.082H44.0565ZM65.2126 28.246H59.8486L58.8766 31H56.6806L61.3606 18.49H63.7186L68.3806 31H66.1846L65.2126 28.246ZM64.6366 26.662L62.5306 20.722L60.4246 26.662H64.6366ZM74.3141 20.956C75.5981 20.956 76.6601 21.298 77.5001 21.982C78.3401 22.654 78.8621 23.572 79.0661 24.736H76.8881C76.7681 24.112 76.4741 23.626 76.0061 23.278C75.5501 22.918 74.9741 22.738 74.2781 22.738C73.4861 22.738 72.8261 23.02 72.2981 23.584C71.7701 24.136 71.5061 24.952 71.5061 26.032C71.5061 27.112 71.7701 27.934 72.2981 28.498C72.8261 29.062 73.4861 29.344 74.2781 29.344C74.9741 29.344 75.5501 29.164 76.0061 28.804C76.4741 28.444 76.7681 27.952 76.8881 27.328H79.0661C78.8621 28.492 78.3401 29.416 77.5001 30.1C76.6601 30.784 75.5981 31.126 74.3141 31.126C73.3541 31.126 72.5021 30.922 71.7581 30.514C71.0261 30.106 70.4501 29.518 70.0301 28.75C69.6101 27.982 69.4001 27.076 69.4001 26.032C69.4001 25 69.6101 24.1 70.0301 23.332C70.4501 22.564 71.0261 21.976 71.7581 21.568C72.5021 21.16 73.3541 20.956 74.3141 20.956ZM85.4586 20.956C86.7426 20.956 87.8046 21.298 88.6446 21.982C89.4846 22.654 90.0066 23.572 90.2106 24.736H88.0326C87.9126 24.112 87.6186 23.626 87.1506 23.278C86.6946 22.918 86.1186 22.738 85.4226 22.738C84.6306 22.738 83.9706 23.02 83.4426 23.584C82.9146 24.136 82.6506 24.952 82.6506 26.032C82.6506 27.112 82.9146 27.934 83.4426 28.498C83.9706 29.062 84.6306 29.344 85.4226 29.344C86.1186 29.344 86.6946 29.164 87.1506 28.804C87.6186 28.444 87.9126 27.952 88.0326 27.328H90.2106C90.0066 28.492 89.4846 29.416 88.6446 30.1C87.8046 30.784 86.7426 31.126 85.4586 31.126C84.4986 31.126 83.6466 30.922 82.9026 30.514C82.1706 30.106 81.5946 29.518 81.1746 28.75C80.7546 27.982 80.5446 27.076 80.5446 26.032C80.5446 25 80.7546 24.1 81.1746 23.332C81.5946 22.564 82.1706 21.976 82.9026 21.568C83.6466 21.16 84.4986 20.956 85.4586 20.956ZM96.7292 20.956C97.6892 20.956 98.5532 21.16 99.3212 21.568C100.089 21.976 100.689 22.564 101.121 23.332C101.553 24.1 101.769 25 101.769 26.032C101.769 27.076 101.553 27.982 101.121 28.75C100.689 29.518 100.089 30.106 99.3212 30.514C98.5532 30.922 97.6892 31.126 96.7292 31.126C95.7692 31.126 94.9052 30.922 94.1372 30.514C93.3812 30.106 92.7812 29.518 92.3372 28.75C91.9052 27.97 91.6892 27.064 91.6892 26.032C91.6892 25 91.9052 24.1 92.3372 23.332C92.7812 22.564 93.3812 21.976 94.1372 21.568C94.9052 21.16 95.7692 20.956 96.7292 20.956ZM96.7292 22.738C96.2012 22.738 95.7152 22.858 95.2712 23.098C94.8272 23.338 94.4672 23.71 94.1912 24.214C93.9272 24.706 93.7952 25.312 93.7952 26.032C93.7952 26.764 93.9272 27.376 94.1912 27.868C94.4672 28.36 94.8272 28.726 95.2712 28.966C95.7152 29.206 96.2012 29.326 96.7292 29.326C97.2572 29.326 97.7432 29.206 98.1872 28.966C98.6312 28.726 98.9852 28.36 99.2492 27.868C99.5252 27.376 99.6632 26.764 99.6632 26.032C99.6632 25.312 99.5252 24.706 99.2492 24.214C98.9852 23.71 98.6312 23.338 98.1872 23.098C97.7432 22.858 97.2572 22.738 96.7292 22.738ZM112.886 21.082V31H110.816V28.84C110.564 29.572 110.126 30.142 109.502 30.55C108.878 30.946 108.152 31.144 107.324 31.144C106.172 31.144 105.248 30.772 104.552 30.028C103.856 29.284 103.508 28.222 103.508 26.842V21.082H105.56V26.626C105.56 27.526 105.788 28.222 106.244 28.714C106.7 29.194 107.324 29.434 108.116 29.434C108.932 29.434 109.586 29.17 110.078 28.642C110.57 28.114 110.816 27.346 110.816 26.338V21.082H112.886ZM120.888 20.92C122.04 20.92 122.964 21.292 123.66 22.036C124.356 22.78 124.704 23.842 124.704 25.222V31H122.652V25.438C122.652 24.55 122.424 23.866 121.968 23.386C121.512 22.894 120.888 22.648 120.096 22.648C119.28 22.648 118.626 22.912 118.134 23.44C117.642 23.956 117.396 24.718 117.396 25.726V31H115.344V21.082H117.396V23.26C117.66 22.516 118.104 21.94 118.728 21.532C119.352 21.124 120.072 20.92 120.888 20.92ZM132.089 29.218V31H130.829C129.773 31 128.969 30.748 128.417 30.244C127.877 29.728 127.607 28.876 127.607 27.688V22.828H126.185V21.082H127.607V18.616H129.677V21.082H132.071V22.828H129.677V27.724C129.677 28.288 129.779 28.678 129.983 28.894C130.199 29.11 130.571 29.218 131.099 29.218H132.089Z" fill="white"/>
</svg>
